<svg height="512" viewBox="0 0 60 60" width="512" xmlns="http://www.w3.org/2000/svg"><g id="004---Money-Off"><path id="Shape" d="m57 .13h-54c-1.65685425 0-3 1.34314575-3 3v26c0 1.6568542 1.34314575 3 3 3h54c1.6568542 0 3-1.3431458 3-3v-26c0-1.65685425-1.3431458-3-3-3zm1 29c0 .5522847-.4477153 1-1 1h-54c-.55228475 0-1-.4477153-1-1v-26c0-.55228475.44771525-1 1-1h54c.5522847 0 1 .44771525 1 1z"/><path id="Shape" d="m55 9.13c-2.209139 0-4-1.790861-4-4 0-.55228475-.4477153-1-1-1h-40c-.55228475 0-1 .44771525-1 1 0 1.06086596-.42142736 2.07828161-1.17157288 2.82842712-.75014551.75014552-1.76756116 1.17157288-2.82842712 1.17157288-.55228475 0-1 .44771525-1 1v12c0 .5522847.44771525 1 1 1 2.209139 0 4 1.790861 4 4 0 .5522847.44771525 1 1 1h40c.5522847 0 1-.4477153 1-1 0-2.209139 1.790861-4 4-4 .5522847 0 1-.4477153 1-1v-12c0-.55228475-.4477153-1-1-1zm-44.08 17c-.4245846-2.520571-2.399429-4.4954154-4.92-4.92v-10.21c2.51755456-.4233138 4.4915649-2.39331192 4.92-4.91h12.46c-3.3517423 2.22329431-5.3667504 5.9779093-5.3667504 10s2.0150081 7.7767057 5.3667504 10zm19.08-20c5.5228475 0 10 4.4771525 10 10s-4.4771525 10-10 10-10-4.4771525-10-10 4.4771525-10 10-10zm24 15.08c-2.520571.4245846-4.4954154 2.399429-4.92 4.92h-12.46c3.3517423-2.2232943 5.3667504-5.9779093 5.3667504-10s-2.0150081-7.77670569-5.3667504-10h12.46c.4437487 2.50115012 2.4144478 4.4518218 4.92 4.87z"/><path id="Shape" d="m30 21.13c-1.1045695 0-2-.8954305-2-2 0-.5522847-.4477153-1-1-1s-1 .4477153-1 1c.0013597 1.8228823 1.2350012 3.4142798 3 3.87v1.15c0 .5522847.4477153 1 1 1s1-.4477153 1-1v-1.15c1.9085636-.5363279 3.1363255-2.3897161 2.8858037-4.3563126-.2505218-1.9665964-1.9037326-3.4529818-3.8858037-3.4936874-1.1045695 0-2-.8954305-2-2s.8954305-2 2-2 2 .8954305 2 2c0 .5522847.4477153 1 1 1s1-.4477153 1-1c-.0059072-1.819157-1.2385971-3.40521795-3-3.86v-1.16c0-.55228475-.4477153-1-1-1s-1 .44771525-1 1v1.14c-1.9260077.5228481-3.1719503 2.3853678-2.9200729 4.3651238.2518773 1.979756 1.9245019 3.4709567 3.9200729 3.4948762 1.1045695 0 2 .8954305 2 2s-.8954305 2-2 2z"/><path id="Shape" d="m18.5 43.13c.8284271 0 1.5-.6715729 1.5-1.5v-6c0-.8284271-.6715729-1.5-1.5-1.5h-9c-.82842712 0-1.5.6715729-1.5 1.5v6c0 .8284271.67157288 1.5 1.5 1.5zm-8.5-7h8v5h-8z"/><path id="Shape" d="m34.5 47.13c.8284271 0 1.5-.6715729 1.5-1.5v-10c0-.8284271-.6715729-1.5-1.5-1.5h-9c-.8284271 0-1.5.6715729-1.5 1.5v10c0 .8284271.6715729 1.5 1.5 1.5zm-8.5-11h8v9h-8z"/><path id="Shape" d="m50.5 34.13h-9c-.8284271 0-1.5.6715729-1.5 1.5v13.5h-.89c-.5860469.0065702-1.1145908.3538631-1.3532202.8891669s-.1436319 1.1605609.2432202 1.6008331l6.89 7.75c.2846201.3194782.6921274.5022024 1.12.5022024s.8353799-.1827242 1.12-.5022024l6.87-7.75c.3879955-.4416355.482249-1.0692095.2411005-1.6053344-.2411485-.5361248-.7732441-.8819675-1.3611005-.8846656h-.88v-13.5c0-.8284271-.6715729-1.5-1.5-1.5zm-4.5 23.49-5.77-6.49h.27c.8284271 0 1.5-.6715729 1.5-1.5v-13.5h8v13.5c0 .8284271.6715729 1.5 1.5 1.5h.27z"/></g></svg>