<svg height="480pt" viewBox="-120 0 480 480" width="480pt" xmlns="http://www.w3.org/2000/svg"><path d="m113.03125 235.921875c1.417969 2.511719 4.082031 4.066406 6.96875 4.066406s5.550781-1.554687 6.96875-4.066406l60.230469-107.121094c8.375-14.902343 12.785156-31.707031 12.800781-48.800781 0-44.183594-35.816406-80-80-80s-80 35.816406-80 80c.015625 17.09375 4.425781 33.898438 12.800781 48.800781zm6.96875-219.921875c35.328125.039062 63.960938 28.671875 64 64-.007812 14.359375-3.707031 28.472656-10.734375 40.992188l-53.265625 94.6875-53.257812-94.6875c-7.035157-12.515626-10.734376-26.632813-10.742188-40.992188.039062-35.328125 28.671875-63.960938 64-64zm0 0"/><path d="m120 128c26.507812 0 48-21.492188 48-48s-21.492188-48-48-48-48 21.492188-48 48c.027344 26.5 21.5 47.972656 48 48zm0-80c17.671875 0 32 14.328125 32 32s-14.328125 32-32 32-32-14.328125-32-32 14.328125-32 32-32zm0 0"/><path d="m184 376h-48c-4.417969 0-8 3.582031-8 8v48c0 4.417969 3.582031 8 8 8h48c4.417969 0 8-3.582031 8-8v-48c0-4.417969-3.582031-8-8-8zm-8 48h-32v-32h32zm0 0"/><path d="m239.945312 319.710938c-.035156-.839844-.203124-1.671876-.496093-2.464844-.074219-.175782-.113281-.359375-.191407-.527344-.082031-.167969-.050781-.199219-.097656-.292969l-15.160156-30.3125v-30.113281c0-4.417969-3.582031-8-8-8h-192c-4.417969 0-8 3.582031-8 8v30.113281l-15.160156 30.3125c-.046875.09375-.054688.199219-.105469.292969-.046875.097656-.109375.351562-.183594.527344-.292969.792968-.4609372 1.625-.4960935 2.464844 0 .097656-.0546875.183593-.0546875.289062v16c.0429688 10.132812 6.445312 19.148438 16 22.527344v113.472656c0 4.417969 3.582031 8 8 8h192c4.417969 0 8-3.582031 8-8v-113.472656c9.554688-3.378906 15.957031-12.394532 16-22.527344v-16c0-.105469-.054688-.183594-.054688-.289062zm-47.945312 16.289062c0 4.417969-3.582031 8-8 8s-8-3.582031-8-8v-8h16zm-32 0c0 4.417969-3.582031 8-8 8s-8-3.582031-8-8v-8h16zm-32 0c0 4.417969-3.582031 8-8 8s-8-3.582031-8-8v-8h16zm-32 0c0 4.417969-3.582031 8-8 8s-8-3.582031-8-8v-8h16zm-32 0c0 4.417969-3.582031 8-8 8s-8-3.582031-8-8v-8h16zm-32 0c0 4.417969-3.582031 8-8 8s-8-3.582031-8-8v-8h16zm168-24h-179.054688l8-16h182.109376l8 16zm-168-48h176v16h-176zm32 200v-72h32v72zm48 0v-80c0-4.417969-3.582031-8-8-8h-48c-4.417969 0-8 3.582031-8 8v80h-16v-105.472656c2.957031-1.058594 5.675781-2.691406 8-4.800782 9.042969 8.320313 22.957031 8.320313 32 0 9.042969 8.320313 22.957031 8.320313 32 0 9.042969 8.320313 22.957031 8.320313 32 0 9.042969 8.320313 22.957031 8.320313 32 0 9.042969 8.320313 22.957031 8.320313 32 0 2.328125 2.109376 5.046875 3.738282 8 4.800782v105.472656zm112-128c0 4.417969-3.582031 8-8 8s-8-3.582031-8-8v-8h16zm0 0"/></svg>