<svg height="512" viewBox="0 0 60 47" width="512" xmlns="http://www.w3.org/2000/svg"><g id="Page-1" fill="none" fill-rule="evenodd"><g id="004---Delivery" fill="rgb(0,0,0)" fill-rule="nonzero"><circle id="Oval" cx="10" cy="41" r="1"/><circle id="Oval" cx="50" cy="41" r="1"/><path id="Shape" d="m51.4 6.2c-.568209-.75344282-1.4563204-1.19749852-2.4-1.2h-8v-2c0-1.65685425-1.3431458-3-3-3h-27.438c-1.37670192-.00030783-2.57692036.93644803-2.911 2.272l-.432 1.728h-2.219c-.55228475 0-1 .44771525-1 1s.44771525 1 1 1h1.719l-4.5 18h-1.219c-.55228475 0-1 .4477153-1 1s.44771525 1 1 1h.719l-1.689 6.757c-.00199891.0349715-.00199891.0700285 0 .105-.01355187.0451554-.02358194.0912937-.03.138v3c0 1.6568542 1.34314575 3 3 3h1.35c-.74251136 2.0662399-.28489569 4.3735458 1.19 6h-.54c-.55228475 0-1 .4477153-1 1s.44771525 1 1 1h54c.5522847 0 1-.4477153 1-1s-.4477153-1-1-1h-4.54c1.4748957-1.6264542 1.9325114-3.9337601 1.19-6h1.35c1.6568542 0 3-1.3431458 3-3v-17.333c-.0010045-.6489472-.2114353-1.2802395-.6-1.8zm6.6 21.8h-2v-2h2zm-9-21c.3147573 0 .6111456.14819416.8.4l8 10.667c.1294362.1732981.1995701.3836998.2.6v5.333h-2c-1.1045695 0-2 .8954305-2 2v2c0 1.1045695.8954305 2 2 2h2v2h-17v-25zm-37 19c.5522847 0 1-.4477153 1-1s-.4477153-1-1-1h-7.719l4.5-18h7.219c.5522847 0 1-.44771525 1-1s-.4477153-1-1-1h-6.719l.31-1.242c.11116099-.44569003.5116567-.75833242.971-.758h27.438c.5522847 0 1 .44771525 1 1v29h-36.719l1.5-6zm-6 15c0-2.209139 1.790861-4 4-4s4 1.790861 4 4-1.790861 4-4 4c-1.06086596 0-2.07828161-.4214274-2.82842712-1.1715729-.75014552-.7501455-1.17157288-1.7675611-1.17157288-2.8284271zm8.46 4c1.4748957-1.6264542 1.9325114-3.9337601 1.19-6h28.7c-.7425114 2.0662399-.2848957 4.3735458 1.19 6zm31.54-4c0-2.209139 1.790861-4 4-4s4 1.790861 4 4-1.790861 4-4 4-4-1.790861-4-4zm12-5c0 .5522847-.4477153 1-1 1h-2.54c-1.1333619-1.2722703-2.7561277-1.9999497-4.46-1.9999497s-3.3266381.7276794-4.46 1.9999497h-31.08c-1.1333619-1.2722703-2.7561277-1.9999497-4.46-1.9999497-1.70387235 0-3.3266381.7276794-4.46 1.9999497h-2.54c-.55228475 0-1-.4477153-1-1v-2h56z"/><path id="Shape" d="m45 22h9c1.1045695 0 2-.8954305 2-2v-.333c-.0005744-.432647-.1408713-.8535377-.4-1.2l-6.5-8.667c-.3786356-.50249989-.9708187-.79859147-1.6-.8h-2.5c-1.1045695 0-2 .8954305-2 2v9c0 1.1045695.8954305 2 2 2zm0-11h2.5l6.5 8.667v.333h-9z"/><path id="Shape" d="m46 24h-2c-.5522847 0-1 .4477153-1 1s.4477153 1 1 1h2c.5522847 0 1-.4477153 1-1s-.4477153-1-1-1z"/><circle id="Oval" cx="1" cy="5" r="1"/><path id="Shape" d="m20 6h5c.5522847 0 1-.44771525 1-1s-.4477153-1-1-1h-5c-.5522847 0-1 .44771525-1 1s.4477153 1 1 1z"/><circle id="Oval" cx="31" cy="25" r="1"/><path id="Shape" d="m16 26h11c.5522847 0 1-.4477153 1-1s-.4477153-1-1-1h-11c-.5522847 0-1 .4477153-1 1s.4477153 1 1 1z"/><path id="Shape" d="m2 45h-1c-.55228475 0-1 .4477153-1 1s.44771525 1 1 1h1c.55228475 0 1-.4477153 1-1s-.44771525-1-1-1z"/><path id="Shape" d="m27.2 21.6c.3313708.4418278.9581722.5313708 1.4.2s.5313708-.9581722.2-1.4l-9-12c-.3313708-.4418278-.9581722-.53137085-1.4-.2s-.5313708.9581722-.2 1.4z"/><path id="Shape" d="m19 22c1.6568542 0 3-1.3431458 3-3s-1.3431458-3-3-3-3 1.3431458-3 3 1.3431458 3 3 3zm0-4c.5522847 0 1 .4477153 1 1s-.4477153 1-1 1-1-.4477153-1-1 .4477153-1 1-1z"/><path id="Shape" d="m25 11c0 1.6568542 1.3431458 3 3 3s3-1.3431458 3-3c0-1.65685425-1.3431458-3-3-3s-3 1.34314575-3 3zm3-1c.5522847 0 1 .4477153 1 1s-.4477153 1-1 1-1-.4477153-1-1 .4477153-1 1-1z"/><path id="Shape" d="m23 29c0 .5522847.4477153 1 1 1h13c.5522847 0 1-.4477153 1-1s-.4477153-1-1-1h-13c-.5522847 0-1 .4477153-1 1z"/><path id="Shape" d="m20 28h-2c-.5522847 0-1 .4477153-1 1s.4477153 1 1 1h2c.5522847 0 1-.4477153 1-1s-.4477153-1-1-1z"/></g></g></svg>