<svg id="Layer_1" enable-background="new 0 0 512 512" height="512" viewBox="0 0 512 512" width="512" xmlns="http://www.w3.org/2000/svg"><g><path d="m31.067 321.333h-16.067c-8.284 0-15 6.716-15 15s6.716 15 15 15h16.067c8.284 0 15-6.716 15-15s-6.716-15-15-15z"/><path d="m31.067 192.8h-16.067c-8.284 0-15 6.716-15 15s6.716 15 15 15h16.067c8.284 0 15-6.716 15-15s-6.716-15-15-15z"/><path d="m31.067 257.067h-16.067c-8.284 0-15 6.716-15 15s6.716 15 15 15h16.067c8.284 0 15-6.716 15-15s-6.716-15-15-15z"/><path d="m31.067 128.533h-16.067c-8.284 0-15 6.716-15 15s6.716 15 15 15h16.067c8.284 0 15-6.716 15-15s-6.716-15-15-15z"/><path d="m416.667 160.667h-49.267v-65.334c0-8.284-6.716-15-15-15h-257.067c-8.284 0-15 6.716-15 15v289.2c0 8.284 6.716 15 15 15h51.728c6.281 18.655 23.926 32.133 44.672 32.133s38.391-13.478 44.672-32.133h135.589c6.281 18.655 23.926 32.133 44.672 32.133s38.391-13.478 44.672-32.133h35.662c8.284 0 15-6.716 15-15v-128.549c0-53.486-43.539-95.317-95.333-95.317zm-224.934 241c-9.447 0-17.133-7.686-17.133-17.133s7.686-17.133 17.133-17.133 17.133 7.686 17.133 17.133-7.685 17.133-17.133 17.133zm145.667-32.134h-100.995c-6.281-18.655-23.926-32.133-44.672-32.133s-38.391 13.478-44.672 32.133h-36.728v-259.2h227.067zm79.267 32.134c-9.447 0-17.133-7.686-17.133-17.133s7.686-17.133 17.133-17.133 17.133 7.686 17.133 17.133-7.686 17.133-17.133 17.133zm65.333-32.134h-20.662c-6.281-18.655-23.926-32.133-44.672-32.133s-38.391 13.478-44.672 32.133h-4.594v-178.866h34.267v97.467c0 8.284 6.716 15 15 15h65.333zm0-96.4h-50.333v-80.701c15.637 3.715 50.333 21.002 50.333 63.552z"/></g></svg>