<svg id="Capa_1" enable-background="new 0 0 510.637 510.637" height="512" viewBox="0 0 510.637 510.637" width="512" xmlns="http://www.w3.org/2000/svg"><path d="m394.45 305.384c-13.384-13.386-34.763-12.917-47.538-.142-14.742 14.741-48.122 48.109-48.132 48.12l-141.36-141.371c7.153-7.146 16.205-16.186 47.967-47.968 13.159-13.14 13.211-34.49.007-47.696-83.793-83.792-78.611-78.641-79.55-79.496-13.285-12.098-33.481-11.893-47.596 2.224-.195.195-25.058 24.956-25.182 25.203-104.244 102.816-39.877 226.133 63.721 329.731 98.23 98.251 216.71 164.707 320.204 72.825 6.371-5.66 36.476-35.908 38.107-37.886.025-.031.05-.061.075-.092 10.913-13.453 9.901-32.838-2.353-45.093zm-294.99-245.116c2.011-2.011 4.333-3.118 6.36-1.087l78.36 78.359c1.483 1.483 1.415 3.85-.003 5.267-7.07 7.075-11.835 11.842-15.585 15.593l-83.656-83.657c6.033-6.031 11.729-11.68 14.524-14.475zm38.54 312.509c-83.158-83.159-150.861-187.653-73.897-276.441l83.278 83.278c-5.613 5.608 1.382-1.381-13.523 13.512-10.473 10.472-10.385 27.367 0 37.729l146.054 146.065c10.404 10.405 27.334 10.405 37.743-.004 7.134-7.139 11.153-11.161 13.51-13.518l83.277 83.277c-88.496 76.729-192.762 9.8-276.442-73.898zm313.717 37.259c-4.196 4.307-11.477 11.604-15.68 15.807l-83.649-83.649 15.739-15.738c1.196-1.196 3.614-1.355 5.112.142l78.369 78.359c1.342 1.343 1.545 3.6.109 5.079z"/><path d="m487.722.033h-186.818c-12.635 0-22.915 10.279-22.915 22.915v141.126l-32.459 32.456c-8.277 8.277-4.278 22.445 7.085 25.188l19.745 4.768-19.558 19.555c-5.858 5.857-5.859 15.355-.001 21.213 5.86 5.861 15.358 5.857 21.213.002l38.471-38.466c8.277-8.277 4.278-22.445-7.085-25.188l-19.745-4.768 13.542-13.54h188.525c12.635 0 22.915-10.279 22.915-22.915v-139.431c0-12.636-10.28-22.915-22.915-22.915zm-7.085 155.261h-172.647v-125.261h172.647z"/><path d="m349.061 82.378h90.506c8.284 0 15-6.716 15-15s-6.716-15-15-15h-90.506c-8.284 0-15 6.716-15 15s6.715 15 15 15z"/><path d="m349.061 131.095h90.506c8.284 0 15-6.716 15-15s-6.716-15-15-15h-90.506c-8.284 0-15 6.716-15 15s6.715 15 15 15z"/></svg>