<?xml version="1.0" encoding="iso-8859-1"?>
<!-- Generator: Adobe Illustrator 19.0.0, SVG Export Plug-In . SVG Version: 6.00 Build 0)  -->
<svg version="1.1" id="Capa_1" xmlns="http://www.w3.org/2000/svg" xmlns:xlink="http://www.w3.org/1999/xlink" x="0px" y="0px"
	 viewBox="0 0 512 512" style="enable-background:new 0 0 512 512;" xml:space="preserve">
<g>
	<g>
		<path d="M481.977,243.608v-65.081c0-19.553-12.54-36.224-29.997-42.416v-17.578c0-24.81-20.185-45.395-44.995-45.395h-56.289
			L281.604,4.445c-5.852-5.853-15.354-5.856-21.211,0l-34.39,34.391L191.613,4.445c-5.842-5.842-15.309-5.859-21.171-0.44
			l-69.649,69.132H45.022c-24.81,0-44.995,19.518-44.995,45.395v348.473c0,24.81,20.185,44.995,44.995,44.995h391.96
			c24.81,0,44.995-20.185,44.995-44.995v-78.572c17.457-6.191,29.997-22.863,29.997-42.416v-59.994
			C511.974,266.47,499.434,249.799,481.977,243.608z M406.985,102.934c8.27,0,14.998,7.328,14.998,15.598v15.506h-10.786
			l-30.504-31.105H406.985z M270.999,36.262l29.518,29.518c-8.915,5.052-19.022,7.757-29.518,7.757s-20.603-2.705-29.518-7.757
			L270.999,36.262z M270.999,103.535c18.55,0,36.291-5.627,51.247-16.026l46.53,46.53H173.222l46.53-46.53
			C234.707,97.906,252.449,103.535,270.999,103.535z M180.968,36.223l23.825,23.824L130.8,134.039H82.42
			C92.976,123.561,170.412,46.7,180.968,36.223z M45.022,102.934h25.549L40.572,133.31c-6.037-2.014-10.549-7.966-10.549-14.777
			C30.023,110.262,36.751,102.934,45.022,102.934z M451.98,467.005c0,8.27-6.728,14.998-14.998,14.998H45.022
			c-8.27,0-14.998-6.728-14.998-14.998v-14.998H451.98V467.005z M451.98,422.01H30.023V161.427
			c4.695,1.684,9.741,2.609,14.998,2.609h391.96c0.918,0,1.813-0.095,2.686-0.253c6.991,1.271,12.313,7.392,12.313,14.745v62.502
			h-75.992v-0.001c-41.351,0-74.992,33.642-74.992,74.992s33.642,74.992,74.992,74.992h75.992V422.01z M481.977,346.017
			c0,8.27-6.728,14.998-14.998,14.998h-90.991c-24.81,0-44.995-20.185-44.995-44.995s20.185-44.995,44.995-44.995h90.991
			c8.27,0,14.998,6.728,14.998,14.998V346.017z"/>
	</g>
</g>
<g>
	<g>
		<circle cx="375.992" cy="316.018" r="14.998"/>
	</g>
</g>
<g>
</g>
<g>
</g>
<g>
</g>
<g>
</g>
<g>
</g>
<g>
</g>
<g>
</g>
<g>
</g>
<g>
</g>
<g>
</g>
<g>
</g>
<g>
</g>
<g>
</g>
<g>
</g>
<g>
</g>
</svg>
